<?xml version="1.0" encoding="UTF-8"?>
<svg width="200" height="200" viewBox="0 0 200 200" fill="none" xmlns="http://www.w3.org/2000/svg">
  <!-- Background Circle -->
  <circle cx="100" cy="100" r="90" fill="url(#gradient)" />
  
  <!-- Brain Icon -->
  <path d="M100 40C80 40 60 50 50 70C40 90 50 110 60 120C70 130 80 140 100 140C120 140 130 130 140 120C150 110 160 90 150 70C140 50 120 40 100 40Z" fill="white"/>
  <path d="M100 50C85 50 70 58 62 75C54 92 62 108 70 116C78 124 85 130 100 130C115 130 122 124 130 116C138 108 146 92 138 75C130 58 115 50 100 50Z" fill="url(#gradient)"/>
  
  <!-- Neural Connections -->
  <path d="M80 80C80 80 90 90 100 90C110 90 120 80 120 80" stroke="white" stroke-width="2"/>
  <path d="M80 100C80 100 90 110 100 110C110 110 120 100 120 100" stroke="white" stroke-width="2"/>
  
  <!-- Gradient Definition -->
  <defs>
    <linearGradient id="gradient" x1="0" y1="0" x2="200" y2="200" gradientUnits="userSpaceOnUse">
      <stop offset="0%" stop-color="#1890ff"/>
      <stop offset="100%" stop-color="#722ed1"/>
    </linearGradient>
  </defs>
</svg> 